<svg id="Layer_1" data-name="Layer 1" xmlns="http://www.w3.org/2000/svg" viewBox="0 0 1276.2 342.81"><defs><style>.cls-1{fill:#006982;}.cls-2{fill:#10335a;}.cls-3{fill:#48c3cf;}</style></defs><title>Artboard 1 copy 21</title><path class="cls-1" d="M121.21,185.48v50A221.4,221.4,0,0,0,221.61,50V0A221.35,221.35,0,0,1,121.21,185.48Z"/><path class="cls-2" d="M221.61,157.31A220.52,220.52,0,0,1,342.82,121.2V221.63A121.17,121.17,0,0,0,221.64,342.81h0Zm246.64-46.4h-25V235.77H535V212.46H468.25Zm639.2,23.31V110.91l-91.93.08V235.77h91.76V212.46h-66.74V184.08h42V160.85h-42V134.22ZM890.39,182.57l-86.76-71.66V235.77h25V164l86.76,71.8V110.91h-25ZM670.34,110l56.38,125.53H701.48l-11.24-26H648.82l-11.94,26h-25Zm10.33,77.46-10.74-24.61-11.25,24.61Z"/><path class="cls-3" d="M221.61,50V342.81H121.21V235.47A221.4,221.4,0,0,0,221.61,50ZM121.18,0A121.18,121.18,0,0,1,0,121.2V221.6C122.39,221.6,221.61,122.38,221.61,0H121.18Zm1155,110.77h-24.71s0,.06,0,.09h0v1.69a31.1,31.1,0,0,1-31.06,29.33v24.72a55.54,55.54,0,0,0,31.06-9.44v78.59h24.77V110.88h0Z"/></svg>