<svg id="Layer_1" data-name="Layer 1" xmlns="http://www.w3.org/2000/svg" viewBox="0 0 832.98 124.86"><defs><style>.cls-1{fill:#10335a;}.cls-2{fill:#fff;}.cls-3{fill:#48c3cf;}</style></defs><title>Artboard 1 copy 20</title><polygon class="cls-1" points="25.03 0 0 0 0 124.86 91.77 124.86 91.77 101.55 25.03 101.55 25.03 0"/><polygon class="cls-1" points="664.23 23.31 664.23 0 572.29 0.08 572.29 124.86 664.06 124.86 664.06 101.55 597.32 101.55 597.32 73.17 639.27 73.17 639.27 49.94 597.32 49.94 597.32 23.31 664.23 23.31"/><polygon class="cls-1" points="447.17 71.66 360.4 0 360.4 124.86 385.43 124.86 385.43 53.06 472.19 124.86 472.19 0 447.17 0 447.17 71.66"/><polygon class="cls-1" points="227.12 -0.91 283.49 124.62 258.26 124.62 247.02 98.6 205.59 98.6 193.66 124.62 168.68 124.62 227.12 -0.91"/><polygon class="cls-2" points="237.45 76.55 226.71 51.94 215.46 76.55 237.45 76.55"/><path class="cls-3" d="M833-.12H808.26V0h0V1.66A31.11,31.11,0,0,1,777.15,31V55.71a55.56,55.56,0,0,0,31.06-9.44v78.59H833V0h0S833-.09,833-.12Z"/></svg>